<svg width="20" height="20" viewBox="0 0 20 20" fill="none" xmlns="http://www.w3.org/2000/svg">
<path d="M13.545 6.45502C12.6455 5.55555 11.3757 4.97354 10 4.97354C8.62433 4.97354 7.35449 5.5291 6.45502 6.45502C5.55555 7.35449 4.97354 8.62433 4.97354 10C4.97354 11.3757 5.55555 12.6455 6.45502 13.545C7.35449 14.4444 8.62433 15.0265 10 15.0265C11.3757 15.0265 12.6455 14.4709 13.545 13.545C14.4444 12.6455 15.0265 11.3757 15.0265 10C15.0265 8.62433 14.4709 7.35449 13.545 6.45502Z" fill="white"/>
<path d="M9.99999 3.4127C10.3704 3.4127 10.6878 3.09524 10.6878 2.72487V0.687831C10.6878 0.31746 10.3704 0 9.99999 0C9.62962 0 9.31216 0.31746 9.31216 0.687831V2.72487C9.31216 3.09524 9.62962 3.4127 9.99999 3.4127Z" fill="white"/>
<path d="M15.6349 5.34392L17.09 3.88889C17.3545 3.62434 17.3545 3.20106 17.09 2.93651C16.8254 2.67196 16.4021 2.67196 16.1376 2.93651L14.6825 4.39154C14.418 4.65609 14.418 5.07937 14.6825 5.34392C14.9206 5.60847 15.3439 5.60847 15.6349 5.34392Z" fill="white"/>
<path d="M19.3122 9.31217H17.2751C16.9048 9.31217 16.5873 9.62963 16.5873 10C16.5873 10.3704 16.9048 10.6878 17.2751 10.6878H19.3122C19.6825 10.6878 20 10.3704 20 10C20 9.62963 19.6825 9.31217 19.3122 9.31217Z" fill="white"/>
<path d="M15.6085 14.6561C15.3439 14.3915 14.9206 14.3915 14.6561 14.6561C14.3915 14.9206 14.3915 15.3439 14.6561 15.6085L16.1111 17.0635C16.3757 17.328 16.7989 17.328 17.0635 17.0635C17.328 16.7989 17.328 16.3757 17.0635 16.1111L15.6085 14.6561Z" fill="white"/>
<path d="M9.99999 16.5873C9.62962 16.5873 9.31216 16.9048 9.31216 17.2751V19.3122C9.31216 19.6825 9.62962 20 9.99999 20C10.3704 20 10.6878 19.6825 10.6878 19.3122V17.2751C10.6878 16.9048 10.3704 16.5873 9.99999 16.5873Z" fill="white"/>
<path d="M4.36508 14.6561L2.91005 16.1111C2.6455 16.3757 2.6455 16.7989 2.91005 17.0635C3.1746 17.328 3.59788 17.328 3.86243 17.0635L5.31746 15.6085C5.58201 15.3439 5.58201 14.9206 5.31746 14.6561C5.07936 14.3915 4.65608 14.3915 4.36508 14.6561Z" fill="white"/>
<path d="M3.4127 10C3.4127 9.62963 3.09524 9.31217 2.72487 9.31217H0.687831C0.31746 9.31217 0 9.62963 0 10C0 10.3704 0.31746 10.6878 0.687831 10.6878H2.72487C3.09524 10.6878 3.4127 10.3704 3.4127 10Z" fill="white"/>
<path d="M4.36508 5.34392C4.62963 5.60847 5.05291 5.60847 5.31746 5.34392C5.58201 5.07937 5.58201 4.65609 5.31746 4.39154L3.86243 2.93651C3.59788 2.67196 3.1746 2.67196 2.91005 2.93651C2.6455 3.20106 2.6455 3.62434 2.91005 3.88889L4.36508 5.34392Z" fill="white"/>
</svg>
